<svg enable-background="new 0 0 467 128" viewBox="0 0 467 128" xmlns="http://www.w3.org/2000/svg"><path d="m466.3 84.9v12.7c-1.5.8-3.3 1.3-5.2 1.3-8 0-14.4-4.4-17.6-10.9-5.6 6.7-13.9 10.9-23.3 10.9-18.4 0-33.1-15-33.1-33.8s14.7-33.8 33.1-33.8c8.3 0 15.5 3.1 21.1 8.1v-6.8h15.5v45c0 5.7 2.9 7.3 6 7.3zm-24.7-19.9c0-10.9-8.8-19.5-19.6-19.5-10.9 0-19.6 8.6-19.6 19.5s8.7 19.5 19.6 19.5c10.8 0 19.6-8.6 19.6-19.5zm-61-33.3v14.5c-1.6-.3-3.4-.7-5.6-.7-11.3 0-19.8 7.6-19.8 19v33h-15.5v-65h15.5v8.9c4.6-6.3 11.6-10.2 20.1-10.2 1.9 0 3.7.2 5.3.5zm-57.5 35.8h-53.5c.8 10.8 8.5 18.5 19.4 18.5 8.3 0 14.9-4.4 17.6-11.2h15.5c-3.8 14.1-16.3 24.1-33.1 24.1-20.2 0-35.1-14.3-35.1-33.8s15-33.8 34.9-33.8c19.8 0 34.1 14 34.4 33.5zm-52.2-11.1h35.4c-2.8-7.5-8.8-12.2-17.3-12.2-8.8 0-15.2 4.9-18.1 12.2zm-87 17.1v-41h15.3v39c0 8 5.1 13 12.1 13s12.1-5 12.1-13v-39h15.3v41c0 15.6-10.3 25.4-27.4 25.4s-27.4-9.8-27.4-25.4zm-5.1 40.5v12.7c-2.1.8-5.1 1.3-8 1.3-11.9 0-22.2-9.4-22.2-21.5v-15.8c-5.6 5-12.7 8.1-21.1 8.1-18.4 0-33.1-15-33.1-33.8s14.7-33.8 33.1-33.8c8.3 0 15.5 3.1 21.1 8.1v-6.8h15.5v72.2c0 5.7 3.8 9.3 8.7 9.3zm-29.7-49c0-10.9-8.8-19.5-19.6-19.5-10.9 0-19.6 8.6-19.6 19.5s8.7 19.5 19.6 19.5c10.8 0 19.6-8.6 19.6-19.5zm-84.1 11.9h-40l-7 20.6h-17.3l35.4-97.5h17.8l35.4 97.5h-17.2zm-4.5-14-15.4-45.5-15.3 45.5z" fill="#0060a4"/></svg>